<svg aria-hidden="true" style="width:0;height:0;position:absolute;overflow:hidden" xmlns="http://www.w3.org/2000/svg"><defs><symbol id="icon-menu" viewBox="0 0 24 24"><path d="M3 13h18a1 1 0 0 0 0-2H3a1 1 0 0 0 0 2zm0-6h18a1 1 0 0 0 0-2H3a1 1 0 0 0 0 2zm0 12h18a1 1 0 0 0 0-2H3a1 1 0 0 0 0 2z"/></symbol><symbol id="icon-shopping-cart" viewBox="0 0 24 24"><path d="M11 21c0-.552-.225-1.053-.586-1.414a1.996 1.996 0 0 0-2.828 0 1.996 1.996 0 0 0 0 2.828 1.996 1.996 0 0 0 2.828 0c.361-.361.586-.862.586-1.414zm11 0c0-.552-.225-1.053-.586-1.414a1.996 1.996 0 0 0-2.828 0 1.996 1.996 0 0 0 0 2.828 1.996 1.996 0 0 0 2.828 0c.361-.361.586-.862.586-1.414zM7.221 7h14.57l-1.371 7.191A1 1 0 0 1 19.4 15H9.666a1.016 1.016 0 0 1-.626-.203.99.99 0 0 1-.379-.603zM1 2h3.18l.848 4.239C5.136 6.676 5.53 7 6 7h1.221l-.4-2H6a1 1 0 0 0-.971 1.239L6.7 14.586A3.009 3.009 0 0 0 9.694 17H19.4a2.97 2.97 0 0 0 1.995-.727 3.02 3.02 0 0 0 .985-1.683l1.602-8.402A1 1 0 0 0 23 5H6.82L5.98.804A1 1 0 0 0 5 0H1a1 1 0 0 0 0 2z"/></symbol><symbol id="icon-toggle-left" viewBox="0 0 24 24"><path d="M8 4c-2.209 0-4.21.897-5.657 2.343S0 9.791 0 12s.897 4.21 2.343 5.657S5.791 20 8 20h8c2.209 0 4.21-.897 5.657-2.343S24 14.209 24 12s-.897-4.21-2.343-5.657S18.209 4 16 4zm0 2h8c1.657 0 3.156.67 4.243 1.757S22 10.343 22 12s-.67 3.156-1.757 4.243S17.657 18 16 18H8c-1.657 0-3.156-.67-4.243-1.757S2 13.657 2 12s.67-3.156 1.757-4.243S6.343 6 8 6zm4 6c0-1.104-.449-2.106-1.172-2.828a3.994 3.994 0 0 0-5.656 0 3.994 3.994 0 0 0 0 5.656 3.994 3.994 0 0 0 5.656 0A3.994 3.994 0 0 0 12 12zm-2 0c0 .553-.223 1.051-.586 1.414S8.553 14 8 14s-1.051-.223-1.414-.586S6 12.553 6 12s.223-1.051.586-1.414S7.447 10 8 10s1.051.223 1.414.586S10 11.447 10 12z"/></symbol><symbol id="icon-modal-close" viewBox="0 0 24 24"><path d="M5.293 6.707 10.586 12l-5.293 5.293a.999.999 0 1 0 1.414 1.414L12 13.414l5.293 5.293a.999.999 0 1 0 1.414-1.414L13.414 12l5.293-5.293a.999.999 0 1 0-1.414-1.414L12 10.586 6.707 5.293a.999.999 0 1 0-1.414 1.414z"/></symbol></defs></svg>